<?xml version="1.0" encoding="UTF-8"?>
<!DOCTYPE svg PUBLIC "-//W3C//DTD SVG 1.1//EN" "http://www.w3.org/Graphics/SVG/1.1/DTD/svg11.dtd">
<!-- Creator: CorelDRAW 2020 (64 Bit) -->
<svg xmlns="http://www.w3.org/2000/svg" xml:space="preserve" width="423.333mm" height="423.333mm" version="1.1" style="shape-rendering:geometricPrecision; text-rendering:geometricPrecision; image-rendering:optimizeQuality; fill-rule:evenodd; clip-rule:evenodd"
viewBox="0 0 42333.32 42333.32"
 xmlns:xlink="http://www.w3.org/1999/xlink"
 xmlns:xodm="http://www.corel.com/coreldraw/odm/2003">
 <defs>
  <style type="text/css">
   <![CDATA[
    .fil1 {fill:#2B2A29;fill-rule:nonzero}
    .fil2 {fill:#E52D34;fill-rule:nonzero}
    .fil0 {fill:#E1E0E1;fill-rule:nonzero}
   ]]>
  </style>
 </defs>
 <g id="Camada_x0020_1">
  <metadata id="CorelCorpID_0Corel-Layer"/>
  <path class="fil0" d="M40953.71 20669.62c0,11134.4 -9026.21,20160.61 -20160.62,20160.61 -11134.41,0 -20160.61,-9026.21 -20160.61,-20160.61 0,-11134.41 9026.2,-20160.62 20160.61,-20160.62 11134.41,0 20160.62,9026.21 20160.62,20160.62z"/>
  <polygon class="fil1" points="7752.87,5681.09 13108.04,5681.09 17260.23,21940.62 17337.84,21940.62 17337.84,5681.09 21140.79,5681.09 21140.79,32844.98 16755.76,32844.98 11633.42,13015.34 11555.81,13015.34 11555.81,32844.98 7752.87,32844.98 "/>
  <path class="fil2" d="M28824.29 36415.1c-2069.63,0 -3647.73,-588.56 -4734.28,-1765.66 -1086.56,-1177.1 -1629.84,-2865.14 -1629.84,-5064.12l0 -14280.45c0,-2198.98 543.28,-3887.02 1629.84,-5064.12 1086.55,-1177.11 2664.65,-1765.66 4734.28,-1765.66 2069.63,0 3647.72,588.55 4734.27,1765.66 1086.56,1177.1 1629.84,2865.14 1629.84,5064.12l0 2328.33 -4035.78 0 0 -2599.97c0,-1785.05 -737.31,-2677.58 -2211.92,-2677.58 -1474.61,0 -2211.92,892.53 -2211.92,2677.58l0 14862.53c0,1759.19 737.31,2638.78 2211.92,2638.78 1474.61,0 2211.92,-879.59 2211.92,-2638.78l0 -5316.36 -2134.31 0 0 -3880.56 6170.09 0 0 8886.48c0,2198.98 -543.28,3887.02 -1629.84,5064.12 -1086.55,1177.1 -2664.64,1765.66 -4734.27,1765.66z"/>
 </g>
</svg>
